<?xml version="1.0" encoding="utf-8"?>
<!-- Generator: Adobe Illustrator 17.0.0, SVG Export Plug-In . SVG Version: 6.00 Build 0)  -->
<!DOCTYPE svg PUBLIC "-//W3C//DTD SVG 1.1//EN" "http://www.w3.org/Graphics/SVG/1.1/DTD/svg11.dtd">
<svg version="1.1" id="Layer_1" xmlns="http://www.w3.org/2000/svg" xmlns:xlink="http://www.w3.org/1999/xlink" x="0px" y="0px"
	 width="259.129px" height="258px" viewBox="0 0 259.129 258" enable-background="new 0 0 259.129 258" xml:space="preserve">
<g>
	<path fill="#FFFFFF" d="M135.69,106.725c-0.874,0.868-1.782,1.705-2.615,2.61c-3.586,3.894-6.873,7.982-9,12.916
		c-1.41,3.272-2.003,6.676-2.015,10.178c-0.043,12.894-0.013,25.789-0.01,38.683c0,0.37,0.008,0.74,0,1.11
		c-0.049,2.141-0.779,2.609-2.64,1.623c-3.731-1.976-7.439-3.995-11.165-5.979c-1.772-0.943-3.539-1.901-5.355-2.752
		c-1.778-0.834-2.497-2.044-2.492-4.096c0.063-29.277,0.044-58.553,0.045-87.83c0-2.791,0.001-2.787-2.835-2.778
		c-2.219,0.007-4.44,0.032-6.658-0.006c-1.801-0.031-2.244-0.497-2.252-2.286c-0.015-3.435-0.016-6.87,0.005-10.305
		c0.011-1.826,0.43-2.24,2.252-2.256c2.589-0.022,5.179-0.033,7.768,0.002c1.222,0.016,1.809-0.537,1.686-1.721
		c-0.609-5.82-0.956-11.688-1.948-17.443c-1.38-8.004-4.406-15.521-8.049-22.759c-1.371-2.724-3.077-5.279-4.621-7.917
		c-0.227-0.388-0.396-0.81-0.705-1.45c0.794-0.076,1.348-0.173,1.903-0.175c6.447-0.014,12.894,0.003,19.341-0.03
		c1.128-0.006,1.795,0.377,2.381,1.399c5.082,8.862,8.554,18.347,11.127,28.197c1.715,6.567,2.586,13.25,2.815,20.02
		c0.045,1.319,0.545,1.897,1.911,1.889c6.13-0.038,12.26-0.007,18.39-0.025c1.574-0.005,1.736-0.242,1.095-1.664
		c-3.331-7.388-7.355-14.376-12.096-20.952c-0.521-0.723-0.903-1.546-1.177-2.466c2.08-0.059,2.645,2.065,4.341,2.562
		c-2.309-4.557-5.504-8.514-8.673-12.487c0.126-0.173,0.251-0.346,0.377-0.519c0.532,0.248,1.184,0.374,1.575,0.763
		c3.292,3.276,6.606,6.535,9.778,9.925c5.402,5.772,9.966,12.162,13.591,19.201c0.651,1.264,1.264,2.559,1.755,3.891
		c0.466,1.262,1.179,1.793,2.584,1.789c16.752-0.045,33.504-0.033,50.256-0.037c2.663-0.001,2.921,0.247,2.924,2.876
		c0.003,2.854-0.003,5.707,0.001,8.561c0.005,3.32-0.104,3.431-3.507,3.431c-9.829,0.001-19.659,0.001-29.488,0
		c-5.655-0.001-11.309-0.005-16.964-0.004c-2.268,0.001-2.22,0.017-2.454,2.23c-0.277,2.618-0.604,5.233-1.018,7.832
		c-0.271,1.704-0.183,1.937,1.607,1.973c5.891,0.12,11.528,1.365,16.806,3.985c6.792,3.371,12.327,8.278,16.889,14.3
		c3.997,5.276,6.879,11.135,8.752,17.463c2.307,7.796,2.495,15.671,0.648,23.614c-1.919,8.254-6.53,15.046-11.574,21.596
		c-1.47,1.909-3.259,3.575-4.934,5.321c-0.702,0.732-0.687,1.274,0.093,1.969c7.031,6.266,11.595,13.975,12.872,23.347
		c0.523,3.842,0.351,7.792,0.297,11.69c-0.016,1.187,0.185,1.813,1.26,2.346c7.519,3.732,15.093,7.368,22.486,11.338
		c6.457,3.467,12.673,7.379,19.047,11.005c6.649,3.783,11.787,9.373,17.421,14.37c0.642,0.569,1.073,1.376,1.603,2.073
		c-0.085,0.131-0.169,0.263-0.254,0.394c-0.745-0.279-1.546-0.461-2.228-0.851c-8.198-4.689-16.34-9.478-24.577-14.098
		c-6.628-3.718-13.304-7.361-20.074-10.811c-4.981-2.538-10.139-4.731-15.253-6.998c-0.284-0.126-1.186,0.381-1.301,0.748
		c-2.887,9.269-8.153,17.017-15.224,23.535c-5.706,5.259-12.264,9.247-19.825,11.164c-5.358,1.359-10.795,1.913-16.441,1.117
		c-9.85-1.39-18.956-4.691-27.442-9.685c-8.146-4.794-15.37-10.783-21.586-17.956c-3.766-4.346-7.018-8.992-8.967-14.449
		c-0.371-1.038-0.666-2.115-0.872-3.197c-0.29-1.527,0.206-2.09,1.895-2.124c2.483-0.049,4.967-0.012,7.451-0.014
		c3.118-0.003,6.236-0.026,9.354-0.005c2.211,0.015,2.506,0.468,2.029,2.551c-1.318,5.758-1.539,11.502,0.526,17.155
		c1.783,4.882,5.586,7.859,9.981,10.139c6.676,3.464,13.795,4.537,21.31,4.177c6.973-0.334,12.342-3.589,17.238-8.066
		c5.321-4.865,9.6-10.54,12.701-17.044c1.268-2.661,2.171-5.495,3.259-8.243c0.416-1.051-0.126-1.53-0.977-1.978
		c-5.09-2.679-10.296-5.167-15.212-8.137c-8.139-4.917-14.694-11.436-19.165-19.981c-3.47-6.633-4.995-13.732-5.824-21.068
		c-0.766-6.781-0.023-13.488,0.761-20.209c1.007-8.633,2.951-17.048,5.618-25.307c0.059-0.184,0.031-0.396,0.043-0.595
		C135.946,106.925,135.818,106.825,135.69,106.725z M182.879,118.237c-0.326-2.771-0.497-5.572-1.029-8.302
		c-0.379-1.944-1.158-3.828-1.907-5.678c-2.561-6.326-8.92-10.526-15.694-10.708c-4.292-0.115-8.183,1.241-12.13,2.601
		c-1.64,0.565-2.692,1.54-3.41,3.045c-1.61,3.372-3.411,6.663-4.841,10.108c-2.018,4.863-4.07,9.75-5.542,14.791
		c-1.159,3.969-1.48,8.185-2.144,12.297c-1.336,8.275-0.209,16.301,2.715,24.076c3.006,7.995,7.903,14.817,14.158,20.519
		c5.607,5.111,11.622,9.784,18.243,13.584c0.335,0.192,0.867,0.379,1.141,0.24c0.26-0.132,0.417-0.695,0.417-1.069
		c0-2.528,0.128-5.076-0.128-7.581c-0.503-4.909-1.347-9.781-4.502-13.818c-1.586-2.029-3.359-3.921-5.157-5.769
		c-1.023-1.052-1.348-2.061-0.706-3.405c0.292-0.611,0.377-1.318,0.645-1.944c0.824-1.926,1.481-3.968,2.6-5.71
		c1.098-1.71,2.686-3.105,4.054-4.642C177.93,141.572,182.56,130.824,182.879,118.237z M123.169,99.036
		c0.499-0.47,0.881-0.781,1.207-1.143c4.961-5.502,10.53-10.173,17.56-12.839c1.239-0.47,1.815-1.377,1.947-2.632
		c0.315-2.982,0.695-5.96,0.915-8.95c0.229-3.102,0.16-3.081-2.897-3.071c-5.751,0.02-11.501,0.023-17.252-0.005
		c-1.26-0.006-1.975,0.311-1.966,1.769c0.055,8.593,0.053,17.187,0.087,25.78C122.771,98.223,122.966,98.5,123.169,99.036z"/>
	<path fill="#FFFFFF" d="M82.913,19.793c-3.227,4.267-6.685,8.381-9.247,13.087c0.171,0.154,0.341,0.309,0.512,0.463
		c0.658-0.778,1.263-1.611,1.995-2.31c0.356-0.34,0.95-0.431,1.437-0.634c-0.049,0.525,0.078,1.165-0.176,1.557
		c-1.578,2.436-3.397,4.727-4.843,7.235c-2.553,4.429-5.377,8.794-7.2,13.527c-2.052,5.33-1.588,11.114-1.036,16.774
		c0.328,3.359,0.458,6.738,0.773,10.099c0.479,5.104,2.348,9.823,4.081,14.591c3.196,8.79,5.779,17.759,7.791,26.905
		c2.052,9.331,3.159,18.746,2.812,28.282c-0.428,11.775-3.501,22.728-11.075,32.046c-4.094,5.037-8.852,9.417-14.587,12.507
		c-7.518,4.051-15.088,8.03-22.803,11.685c-8.104,3.839-16.404,7.265-24.629,10.846c-0.589,0.256-1.268,0.306-1.905,0.451
		c-0.12-0.183-0.239-0.365-0.359-0.548c1.435-1.223,2.83-2.498,4.312-3.661c6.283-4.929,13.726-7.995,20.217-12.615
		c6.997-4.981,14.247-9.607,21.22-14.618c6.396-4.597,11.799-10.284,15.958-16.971c4.557-7.327,7.184-15.34,7.408-24.076
		c0.169-6.595-0.481-13.12-2.147-19.455c-1.269-4.823-3.26-9.458-4.991-14.155c-0.655-1.779-1.376-3.549-2.246-5.231
		c-2.277-4.399-4.814-8.671-6.934-13.142c-1.366-2.882-2.455-5.962-3.173-9.067c-0.981-4.251-1.615-8.564-1.622-12.998
		c-0.014-8.426,2.224-16.117,6.34-23.408c4.559-8.077,10.418-15.102,16.889-21.666c1.666-1.69,3.362-3.352,5.098-4.97
		c0.476-0.444,1.147-0.678,1.728-1.009C82.645,19.474,82.779,19.634,82.913,19.793z"/>
</g>
</svg>
